<svg xmlns="http://www.w3.org/2000/svg" viewBox="0 0 1024 1024" width="1024" height="1024">
  <defs>
    <!-- Background Gradient -->
    <linearGradient id="sqBgGrad" x1="0%" y1="0%" x2="0%" y2="100%">
      <stop offset="0%" stop-color="#18181b" />
      <stop offset="100%" stop-color="#0f0f11" />
    </linearGradient>

    <!-- Squircle Subtle Rim Light -->
    <linearGradient id="sqBorderGrad" x1="0%" y1="0%" x2="100%" y2="100%">
      <stop offset="0%" stop-color="#ffffff" stop-opacity="0.12" />
      <stop offset="100%" stop-color="#ffffff" stop-opacity="0.02" />
    </linearGradient>

    <!-- LEFT LOBE: Rich Purple to Hot Magenta Gradient -->
    <linearGradient id="leftLobeGrad" x1="20%" y1="10%" x2="80%" y2="90%">
      <stop offset="0%" stop-color="#7c3aed" />
      <stop offset="25%" stop-color="#9333ea" />
      <stop offset="50%" stop-color="#c026d3" />
      <stop offset="80%" stop-color="#e11d48" />
      <stop offset="100%" stop-color="#f43f5e" />
    </linearGradient>

    <!-- Left Lobe Volumetric Radial Glow -->
    <radialGradient id="leftLobeRadial" cx="38%" cy="50%" r="58%">
      <stop offset="0%" stop-color="#f472b6" stop-opacity="0.9" />
      <stop offset="45%" stop-color="#d946ef" stop-opacity="0.8" />
      <stop offset="80%" stop-color="#a21caf" stop-opacity="0.2" />
      <stop offset="100%" stop-color="#581c87" stop-opacity="0" />
    </radialGradient>

    <!-- Left Lobe Glowing Rim Highlight -->
    <linearGradient id="leftRimStroke" x1="0%" y1="0%" x2="100%" y2="100%">
      <stop offset="0%" stop-color="#f472b6" stop-opacity="0.95" />
      <stop offset="50%" stop-color="#ec4899" stop-opacity="0.6" />
      <stop offset="100%" stop-color="#fda4af" stop-opacity="0.95" />
    </linearGradient>

    <!-- RIGHT LOBE: Vibrant Cyan to Mint/Emerald Gradient -->
    <linearGradient id="rightLobeGrad" x1="15%" y1="15%" x2="90%" y2="90%">
      <stop offset="0%" stop-color="#0284c7" />
      <stop offset="25%" stop-color="#06b6d4" />
      <stop offset="55%" stop-color="#14b8a6" />
      <stop offset="85%" stop-color="#10b981" />
      <stop offset="100%" stop-color="#34d399" />
    </linearGradient>

    <!-- Right Lobe Volumetric Radial Glow -->
    <radialGradient id="rightLobeRadial" cx="62%" cy="50%" r="58%">
      <stop offset="0%" stop-color="#67e8f9" stop-opacity="0.9" />
      <stop offset="45%" stop-color="#2dd4bf" stop-opacity="0.8" />
      <stop offset="80%" stop-color="#0d9488" stop-opacity="0.2" />
      <stop offset="100%" stop-color="#064e3b" stop-opacity="0" />
    </radialGradient>

    <!-- Right Lobe Glowing Rim Highlight -->
    <linearGradient id="rightRimStroke" x1="0%" y1="0%" x2="100%" y2="100%">
      <stop offset="0%" stop-color="#67e8f9" stop-opacity="0.95" />
      <stop offset="50%" stop-color="#2dd4bf" stop-opacity="0.6" />
      <stop offset="100%" stop-color="#a7f3d0" stop-opacity="0.95" />
    </linearGradient>

    <!-- FROSTED GLASS PIN: Volumetric Silvery Glass Gradient -->
    <linearGradient id="pinFrostedGlass" x1="50%" y1="0%" x2="50%" y2="100%">
      <stop offset="0%" stop-color="#ffffff" stop-opacity="0.98" />
      <stop offset="20%" stop-color="#e8ecf1" stop-opacity="0.94" />
      <stop offset="45%" stop-color="#cbd5e1" stop-opacity="0.85" />
      <stop offset="70%" stop-color="#94a3b8" stop-opacity="0.55" />
      <stop offset="92%" stop-color="#cbd5e1" stop-opacity="0.7" />
      <stop offset="100%" stop-color="#ffffff" stop-opacity="0.9" />
    </linearGradient>

    <!-- Pin Top Specular Dome Highlight -->
    <radialGradient id="pinSpecularDome" cx="50%" cy="26%" r="48%">
      <stop offset="0%" stop-color="#ffffff" stop-opacity="0.95" />
      <stop offset="45%" stop-color="#ffffff" stop-opacity="0.3" />
      <stop offset="85%" stop-color="#ffffff" stop-opacity="0" />
    </radialGradient>

    <!-- Pin Fine Specular Edge Border -->
    <linearGradient id="pinEdgeStroke" x1="0%" y1="0%" x2="100%" y2="100%">
      <stop offset="0%" stop-color="#ffffff" stop-opacity="0.95" />
      <stop offset="50%" stop-color="#ffffff" stop-opacity="0.35" />
      <stop offset="100%" stop-color="#ffffff" stop-opacity="0.9" />
    </linearGradient>

    <!-- Soft Ambient Drop Shadow -->
    <filter id="masterDropShadow" x="-15%" y="-15%" width="130%" height="130%">
      <feDropShadow dx="0" dy="18" stdDeviation="24" flood-color="#000000" flood-opacity="0.65" />
    </filter>
  </defs>

  <rect width="1024" height="1024" rx="224" fill="url(#sqBgGrad)" stroke="url(#sqBorderGrad)" stroke-width="2" />

  <!-- Master Cloud-Pin Mark -->
  <g id="silo-brand-mark" filter="url(#masterDropShadow)">
    <!-- LEFT LOBE (Purple / Magenta / Fuchsia Capsule) -->
    <g id="left-lobe">
      <path
        d="M 512 778 
           L 305 778 
           C 190 778 120 682 120 560 
           C 120 438 212 372 328 372 
           C 400 372 462 408 498 468 
           L 512 505 
           Z"
        fill="url(#leftLobeGrad)"
      />
      <path
        d="M 512 778 
           L 305 778 
           C 190 778 120 682 120 560 
           C 120 438 212 372 328 372 
           C 400 372 462 408 498 468 
           L 512 505 
           Z"
        fill="url(#leftLobeRadial)"
      />
      <path
        d="M 512 778 
           L 305 778 
           C 190 778 120 682 120 560 
           C 120 438 212 372 328 372 
           C 400 372 462 408 498 468"
        fill="none"
        stroke="url(#leftRimStroke)"
        stroke-width="4.5"
        stroke-linecap="round"
      />
    </g>

    <!-- RIGHT LOBE (Cyan / Teal / Emerald Capsule) -->
    <g id="right-lobe">
      <path
        d="M 512 778 
           L 719 778 
           C 834 778 904 682 904 560 
           C 904 438 812 372 696 372 
           C 624 372 562 408 526 468 
           L 512 505 
           Z"
        fill="url(#rightLobeGrad)"
      />
      <path
        d="M 512 778 
           L 719 778 
           C 834 778 904 682 904 560 
           C 904 438 812 372 696 372 
           C 624 372 562 408 526 468 
           L 512 505 
           Z"
        fill="url(#rightLobeRadial)"
      />
      <path
        d="M 512 778 
           L 719 778 
           C 834 778 904 682 904 560 
           C 904 438 812 372 696 372 
           C 624 372 562 408 526 468"
        fill="none"
        stroke="url(#rightRimStroke)"
        stroke-width="4.5"
        stroke-linecap="round"
      />
    </g>

    <!-- FROSTED GLASS PIN TEARDROP (Center Overlay) -->
    <g id="frosted-glass-pin">
      <path
        d="M 512 778
           C 460 706 322 530 322 388
           C 322 278 406 188 512 188
           C 618 188 702 278 702 388
           C 702 530 564 706 512 778
           Z"
        fill="url(#pinFrostedGlass)"
        stroke="url(#pinEdgeStroke)"
        stroke-width="4"
      />

      <path
        d="M 512 778
           C 460 706 322 530 322 388
           C 322 278 406 188 512 188
           C 618 188 702 278 702 388
           C 702 530 564 706 512 778
           Z"
        fill="url(#pinSpecularDome)"
      />

      <path
        d="M 512 778
           C 485 738 410 636 390 560
           C 425 615 470 690 512 778
           Z"
        fill="url(#leftLobeGrad)"
        opacity="0.38"
      />
      <path
        d="M 512 778
           C 539 738 614 636 634 560
           C 599 615 554 690 512 778
           Z"
        fill="url(#rightLobeGrad)"
        opacity="0.38"
      />
    </g>
  </g>
</svg>